<svg xmlns="http://www.w3.org/2000/svg" width="570" height="660" viewBox="0 0 570 660" fill="none"><path fill-rule="evenodd" clip-rule="evenodd" d="M447 16C447 7.16344 454.163 0 463 0H550C561.046 0 570 8.95429 570 20V640C570 651.046 561.046 660 550 660H463C454.163 660 447 652.837 447 644V644C447 635.163 439.837 628 431 628H139C130.163 628 123 635.163 123 644V644C123 652.837 115.837 660 107 660H20C8.9543 660 0 651.046 0 640V20C0 8.95431 8.95431 0 20 0H107C115.837 0 123 7.16344 123 16V16C123 24.8366 130.163 32 139 32H431C439.837 32 447 24.8366 447 16V16Z" fill="black"></path></svg>