<svg fill="none" viewBox="0 0 269 66" height="66" width="269" xmlns="http://www.w3.org/2000/svg"><path fill="#224340" d="M125.155 0.239014C125.487 0.24058 125.823 0.242147 126.156 0.242147C126.148 1.52636 126.192 2.80902 126.198 4.09323C126.379 6.36254 126.269 8.64908 126.38 10.9246C126.484 11.6842 126.419 12.4547 126.458 13.219C126.972 13.2441 127.475 13.36 127.984 13.4367C129.567 9.41961 131.13 5.39468 132.739 1.38698C133.027 1.50131 133.315 1.61407 133.606 1.72526C133.168 3.43077 132.538 5.07833 132.017 6.75877C131.271 9.19722 130.405 11.5996 129.696 14.0475C130.087 14.2667 130.482 14.4844 130.872 14.7115C133.785 11.548 136.696 8.38127 139.59 5.19892C139.849 5.38998 140.121 5.57165 140.339 5.81597C137.713 9.18156 134.977 12.4688 132.313 15.8078C132.673 16.1696 133.013 16.5517 133.356 16.9323C137.096 14.8932 140.757 12.7053 144.484 10.6396C144.663 10.9059 144.835 11.1784 145.004 11.454C141.449 13.7875 137.893 16.1226 134.35 18.478C134.577 18.9526 134.789 19.4334 134.975 19.9236C139.132 19.0779 143.297 18.2838 147.451 17.424C147.534 17.7435 147.618 18.063 147.69 18.3856C143.589 19.5023 139.473 20.5641 135.373 21.6902C135.387 21.8201 135.414 22.0801 135.428 22.2101C139.567 22.2258 143.706 22.1976 147.844 22.2242C147.894 22.2681 147.996 22.3573 148.046 22.4012C148.11 25.2296 147.747 28.0878 146.784 30.7611C145.244 35.234 142.226 39.1743 138.334 41.8587C134.331 44.6557 129.389 46.0731 124.512 45.8335C118.944 45.6032 113.502 43.1883 109.596 39.2103C106.993 36.6059 105.039 33.3468 103.992 29.8136C103.249 27.3548 102.99 24.777 103.034 22.2148C107.241 22.2117 111.446 22.2179 115.652 22.2117C115.665 22.0441 115.679 21.8781 115.696 21.7121C111.652 20.4702 107.607 19.2376 103.565 17.9894C103.624 17.6919 103.689 17.3943 103.789 17.1077C104.265 17.1171 104.727 17.2455 105.187 17.3583C108.819 18.2651 112.475 19.0747 116.108 19.9753C116.291 19.4898 116.509 19.0168 116.681 18.5282C113.203 16.0944 109.72 13.6685 106.238 11.241C106.389 10.9716 106.537 10.7007 106.705 10.4392C108.49 11.3929 110.174 12.5378 111.934 13.5448C113.837 14.7241 115.773 15.8501 117.669 17.0403C118.005 16.6238 118.354 16.2197 118.731 15.8407C116.1 12.4908 113.458 9.14867 110.818 5.80657C111.063 5.59984 111.311 5.39311 111.557 5.18482C114.471 8.32176 117.284 11.5542 120.153 14.7335C120.611 14.4829 121.066 14.2245 121.535 13.9895C120.048 9.96305 118.529 5.94752 117.052 1.91789C117.355 1.7973 117.658 1.67828 117.964 1.56239C119.721 5.5184 121.488 9.47129 123.245 13.4257C123.701 13.3302 124.159 13.2425 124.628 13.2221C124.764 12.2731 124.703 11.313 124.759 10.3593C124.9 6.98586 124.999 3.61087 125.155 0.239014ZM120.033 17.1328C118.592 18.4279 117.663 20.2775 117.456 22.2023C122.836 22.2258 128.217 22.2132 133.597 22.2085C133.326 18.3418 129.79 15.0764 125.937 14.9715C123.782 14.8446 121.596 15.6434 120.033 17.1328ZM104.968 25.6947C105.288 28.3008 106.06 30.8582 107.324 33.1651C112.423 32.6389 117.605 33.3609 122.465 34.9536C125.37 35.8573 128.288 36.7421 131.27 37.3608C133.927 37.9465 136.602 38.4899 139.307 38.8047C141.987 36.4101 144.052 33.3202 145.178 29.9029C145.651 28.4433 146.071 26.9351 146.096 25.3909C146.162 24.6423 145.413 24.0033 144.694 24.0331C141.606 24.0127 138.516 24.0237 135.428 24.0268C135.227 26.4277 134.07 28.7158 132.314 30.3571C130.519 32.0328 128.079 33.0383 125.617 33.021C123.066 33.0743 120.523 32.0391 118.687 30.2772C116.958 28.65 115.893 26.3744 115.641 24.0221C112.548 24.0299 109.455 24.008 106.364 24.0331C105.523 24.0096 104.801 24.8709 104.968 25.6947Z"></path><path fill="#224340" d="M153.409 8.35622C155.295 8.35152 157.18 8.34212 159.066 8.36091C160.244 10.9012 161.852 13.2081 163.248 15.6293C167.725 23.0261 172.179 30.4369 176.658 37.8337C176.669 29.1934 176.658 20.5532 176.665 11.9129C176.668 11.3021 176.68 10.6725 176.455 10.0946C176.198 9.38046 175.554 8.92158 175.03 8.41416C176.444 8.4079 177.858 8.40633 179.272 8.41573C178.442 9.08759 177.589 9.96619 177.665 11.1235C177.642 20.525 177.667 29.928 177.653 39.3294C177.578 40.0623 178.132 40.6324 178.406 41.2682C176.541 41.2823 174.676 41.2823 172.812 41.2714C172.226 40.4867 171.806 39.5878 171.282 38.7609C166.287 30.3383 161.296 21.9125 156.307 13.4868C155.948 12.9199 155.566 12.3686 155.179 11.8205C155.129 20.7286 155.171 29.6398 155.159 38.5494C155.127 39.699 155.893 40.6324 156.781 41.2667C155.367 41.2808 153.953 41.287 152.54 41.2635C153.383 40.6653 154.134 39.8008 154.145 38.7092C154.155 29.1465 154.148 19.5806 154.148 10.0179C154.064 9.41021 153.669 8.89809 153.409 8.35622Z"></path><path fill="#224340" d="M0 8.60363C3.86675 8.57544 7.7335 8.59893 11.6002 8.5911C14.947 8.69916 18.297 9.86749 20.8498 12.0632C23.8739 14.6504 25.8003 18.4483 26.2106 22.398C26.5645 25.7417 26.3249 29.2326 24.9765 32.3476C23.9679 34.5229 22.5913 36.5745 20.7166 38.0984C18.2751 40.1766 15.1021 41.3199 11.9119 41.4499C7.94336 41.4483 3.97481 41.4577 0.00782988 41.4452C0.773663 40.9675 1.57865 40.3176 1.6319 39.3403C1.64912 30.0422 1.6319 20.7426 1.64129 11.4446C1.63503 11.0374 1.67888 10.6145 1.51914 10.2293C1.29205 9.48066 0.591993 9.04371 0 8.60363ZM7.25583 9.47439C7.25897 19.8656 7.248 30.2568 7.26053 40.648C8.55258 40.6339 9.8462 40.6746 11.1367 40.6277C13.063 40.3661 14.8609 39.3638 16.1686 37.9355C17.3667 36.7656 18.2155 35.2981 18.8858 33.7774C20.1763 30.9114 20.5569 27.7181 20.4974 24.6C20.5209 20.6455 19.5577 16.5877 17.2179 13.3474C15.8288 11.4383 13.7991 9.88471 11.4295 9.49475C10.0388 9.4462 8.64655 9.49005 7.25583 9.47439Z"></path><path fill="#224340" d="M204.781 12.223C206.939 11.7954 209.096 11.0578 210.847 9.68585C210.862 12.2746 210.848 14.8619 210.853 17.4507C213.946 17.8876 216.847 19.1202 219.612 20.5234C222.566 21.9423 225.398 23.6525 228.52 24.6924C229.98 25.2045 231.501 25.5976 233.057 25.6352C234.888 25.7323 236.821 25.6102 238.454 24.6955C239.717 24.0002 240.558 22.6016 240.542 21.1561C240.575 19.9831 240.025 18.8962 239.386 17.9503C238.846 17.1547 238.064 16.4828 237.123 16.2338C236.057 16.0474 235.076 16.7334 234.406 17.4945C232.81 19.4459 232.328 21.9924 231.895 24.4058C231.115 24.3353 230.354 24.1443 229.596 23.9642C229.076 23.8217 228.494 23.6979 228.143 23.2547C227.667 22.6784 227.717 21.8155 228.104 21.2062C229.318 18.7678 231.41 16.6942 234.043 15.8642C237.139 14.7444 240.741 15.7796 243.034 18.0677C244.853 19.7967 245.987 22.1522 246.567 24.5703C247.046 26.531 246.963 28.5607 246.922 30.5607C246.711 33.5895 245.641 36.6294 243.624 38.93C241.793 41.0443 238.993 42.3504 236.18 42.1891C234.351 41.9949 232.55 41.3199 231.109 40.1641C228.132 37.7351 226.632 33.8573 226.524 30.0814C226.323 28.3932 226.586 26.7017 226.762 25.0229C225.936 24.6752 225.145 24.2523 224.329 23.889C223.327 23.4333 222.091 24.3244 222.146 25.4113C222.145 29.9326 222.138 34.454 222.149 38.9754C222.123 39.9214 222.745 40.6982 223.438 41.2682C220.986 41.2776 218.533 41.2917 216.082 41.262C216.702 40.7154 217.406 40.0576 217.36 39.1555C217.36 32.8926 217.371 26.6313 217.354 20.3699C215.813 19.6981 214.262 19.0168 212.612 18.6613C211.755 18.3543 210.783 19.1593 210.856 20.052C210.85 24.2304 210.855 28.4088 210.853 32.5872C210.92 34.5089 210.656 36.4775 211.157 38.3568C211.473 39.6645 212.444 40.778 213.706 41.251C212.48 41.3027 211.252 41.2714 210.026 41.2729C208.867 41.2087 207.555 40.8156 206.967 39.7256C206.231 38.3615 206.161 36.7735 206.095 35.259C206.095 29.6053 206.097 23.9516 206.095 18.2995C204.842 18.4827 203.619 18.821 202.427 19.2439C202.291 18.9933 202.158 18.7412 202.034 18.4859C203.358 18.0333 204.704 17.6167 206.097 17.4319C206.086 16.2776 206.111 15.1234 206.087 13.9708C206.056 13.1658 205.332 12.6944 204.781 12.223ZM240.785 23.557C240.337 24.2398 239.793 24.8772 239.093 25.3079C237.253 26.4731 234.992 26.4903 232.89 26.5451C232.193 26.7566 231.657 27.4488 231.679 28.1864C231.632 31.4095 231.888 34.7062 233.059 37.7366C233.617 39.0005 234.321 40.3317 235.579 41.0192C236.265 41.4327 237.186 41.4499 237.87 41.0192C239.167 40.3004 239.895 38.9175 240.429 37.591C241.695 34.4149 241.756 30.9459 241.781 27.5756C241.753 26.1818 241.782 24.7582 241.392 23.4082C241.178 23.4192 240.894 23.3064 240.785 23.557Z"></path><path fill="#224340" d="M49.6751 12.4125C51.8332 11.9834 53.9991 11.2552 55.7516 9.88794C55.7861 10.718 55.7046 11.5512 55.8033 12.3781C55.855 13.7547 55.808 15.136 55.8299 16.5158C56.6819 16.5126 57.5338 16.5142 58.3858 16.5142C58.3843 16.7726 58.3843 17.031 58.3858 17.2894C57.5323 17.2879 56.6787 17.2894 55.8252 17.2879C55.8221 21.2924 55.8362 25.2954 55.8189 29.3C54.6866 28.9069 53.559 28.4966 52.4455 28.0518C51.5121 27.6947 50.9765 26.6705 51 25.7026C51.0031 22.8977 51.0031 20.0943 51.0016 17.2894C50.3829 17.2863 49.7643 17.2926 49.1457 17.2816C49.1441 17.0294 49.1426 16.7789 49.1426 16.5283C49.7596 16.5064 50.3782 16.5158 50.9953 16.5158C50.9953 15.6575 51.0266 14.7977 50.9843 13.9411C50.8778 13.2238 50.2013 12.8181 49.6751 12.4125Z"></path><path fill="#224340" d="M218.892 11.7656C220.444 11.479 222.099 12.8212 222.062 14.4202C222.181 15.7138 221.233 16.9698 219.993 17.2878C219.266 17.4037 218.472 17.3817 217.833 16.9824C217.028 16.4655 216.419 15.5635 216.474 14.5799C216.383 13.2033 217.554 11.941 218.892 11.7656Z"></path><path fill="#224340" d="M187.218 16.9667C188.58 16.1241 190.145 15.6371 191.731 15.4476C193.308 15.3458 194.968 15.4178 196.405 16.1523C197.606 16.7569 198.66 17.6871 199.305 18.8789C200.116 20.3809 200.401 22.1239 200.359 23.8169C200.365 28.8614 200.342 33.9074 200.37 38.9535C200.339 39.9057 200.953 40.6887 201.649 41.2651C200.263 41.2933 198.877 41.2322 197.491 41.2447C196.931 41.1774 196.228 41.1664 195.875 40.6496C195.567 40.0419 195.596 39.3309 195.551 38.67C194.729 40.0764 193.429 41.2087 191.858 41.6926C189.296 42.507 186.414 42.3739 183.965 41.2478C182.422 40.5337 181.122 39.2197 180.601 37.5816C180.178 36.1908 180.197 34.6639 180.637 33.2779C181.039 32.0375 181.992 31.0853 182.969 30.2678C184.236 29.3234 185.673 28.628 187.144 28.0627C189.009 27.4143 190.832 26.6124 192.51 25.5616C193.643 24.8553 194.699 23.9062 195.214 22.6455C195.665 21.6431 195.617 20.5171 195.534 19.449C195.341 18.514 194.951 17.5603 194.217 16.9229C193.254 16.1649 191.828 16.2024 190.806 16.8226C189.805 17.4475 189.131 18.5046 188.823 19.6291C188.588 20.3323 188.657 21.084 188.502 21.8013C186.823 22.2837 185.138 22.7426 183.456 23.2155C183.421 20.6283 185.06 18.2729 187.218 16.9667ZM189.357 28.6656C187.968 29.5599 186.796 30.8237 186.132 32.3476C185.412 33.8824 185.382 35.6411 185.617 37.2918C185.808 38.6763 186.488 40.067 187.731 40.7905C188.889 41.5501 190.388 41.4264 191.637 40.98C193.927 40.269 195.662 37.9903 195.579 35.5707C195.575 31.6397 195.587 27.7087 195.573 23.7778C194.126 26.0768 191.554 27.2279 189.357 28.6656Z"></path><path fill="#224340" d="M256.455 16.0615C257.888 15.3332 259.562 15.3035 261.121 15.529C263.628 15.8829 265.888 17.5869 266.898 19.9126C267.571 21.4818 267.734 23.2218 267.703 24.9147C267.701 29.4048 267.704 33.8964 267.701 38.3865C267.703 38.9284 267.664 39.5016 267.916 40.0012C268.145 40.5211 268.594 40.8876 269 41.2682C266.546 41.2807 264.091 41.2854 261.637 41.2666C262.33 40.6981 262.975 39.9354 262.94 38.9816C262.953 34.8674 262.942 30.7517 262.945 26.6359C262.94 24.9132 262.976 23.1873 262.857 21.4677C262.701 19.9564 262.281 18.3887 261.246 17.2329C260.403 16.3027 259 16.2118 257.85 16.5031C256.344 16.8524 255.044 17.8907 254.303 19.2391C253.675 20.3432 253.34 21.6071 253.343 22.8772C253.345 27.9405 253.345 33.0038 253.343 38.067C253.346 38.67 253.291 39.2949 253.512 39.8696C253.728 40.446 254.195 40.8751 254.649 41.2713C252.192 41.2744 249.733 41.2948 247.278 41.2603C247.97 40.7028 248.61 39.9573 248.601 39.0161C248.609 33.2684 248.609 27.5208 248.601 21.7747C248.601 20.8303 247.97 20.066 247.259 19.521C249.512 18.9979 251.689 17.9659 253.343 16.3214C253.348 17.1875 253.334 18.052 253.353 18.9165C254.15 17.7482 255.171 16.6879 256.455 16.0615Z"></path><path fill="#224340" d="M65.6346 17.2486C67.492 16.0067 69.8021 15.3066 72.0369 15.6872C74.1622 16.0536 76.1464 17.1499 77.5732 18.7693C79.5919 21.0057 80.6819 23.9719 80.9059 26.9554C81.1846 30.4056 80.851 34.0593 79.0735 37.1007C77.7877 39.4295 75.639 41.3324 73.0471 42.0434C70.5444 42.8327 67.7739 42.1624 65.6409 40.72C63.0333 38.8986 61.4703 35.9026 60.836 32.8409C59.1556 32.4055 57.4798 31.9435 55.8354 31.386C55.8182 33.1447 55.8276 34.905 55.8292 36.6638C55.8808 37.9715 56.1424 39.3826 57.0664 40.3708C57.4798 40.8532 58.0421 41.1679 58.609 41.4342C57.4548 41.4655 56.3021 41.4467 55.1495 41.4498C53.9937 41.4342 52.7094 41.099 52.0266 40.0905C51.2357 38.8955 51.1371 37.4218 51.0196 36.0358C50.9726 33.8949 51.0337 31.754 50.9867 29.6131C48.0502 28.6312 45.3095 26.9883 42.207 26.5529C40.8116 26.3196 39.3363 26.4527 38.0662 27.1042C36.1665 28.0219 34.8494 29.8794 34.2872 31.8793C33.7093 34.0045 33.7171 36.385 34.7868 38.3583C35.4586 39.5266 36.4406 40.554 37.67 41.1319C38.9714 41.7208 40.4874 41.6049 41.8061 41.1351C43.6761 40.4428 45.1138 38.8266 45.7512 36.9566C46.0315 36.8689 46.3306 36.9285 46.6204 36.9175C46.0002 38.742 44.8444 40.4601 43.1279 41.4076C41.8829 42.117 40.4373 42.4349 39.0106 42.4067C36.2934 42.5132 33.5135 41.4796 31.6248 39.5032C29.4228 37.2526 28.303 34.1267 28.0477 31.0289C27.7862 27.74 28.043 24.2758 29.628 21.3189C30.8903 18.8163 33.0985 16.713 35.8392 15.9534C38.4076 15.0905 41.2736 15.8156 43.4192 17.377C45.7527 19.1185 47.1763 21.9094 47.524 24.7722C47.5882 25.6054 47.6023 26.5153 48.1505 27.1997C48.6845 27.9624 49.6445 28.1551 50.4464 28.509C53.8136 29.7682 57.1729 31.0962 60.681 31.9153C60.41 29.7635 60.4147 27.5631 60.7687 25.4222C61.3513 22.2476 62.9566 19.1405 65.6346 17.2486ZM36.1602 17.2063C35.1955 18.1115 34.5957 19.3284 34.14 20.5531C33.3506 22.8083 32.9873 25.1998 32.9387 27.585C32.9528 28.0031 32.873 28.509 33.2222 28.8207C33.5715 29.2122 34.2684 29.2278 34.6082 28.8144C35.634 27.4581 37.0561 26.3321 38.7256 25.9108C40.0865 25.5506 41.5101 25.5694 42.9055 25.6242C42.9525 23.3784 42.8444 21.0214 41.7748 18.9932C41.2266 18.0332 40.5031 17.0935 39.4585 16.6472C38.3779 16.1366 37.0216 16.3904 36.1602 17.2063ZM67.8303 18.5078C66.922 20.0285 66.4537 21.7621 66.1076 23.4864C65.5109 26.5639 65.7521 29.7118 65.7035 32.8268C67.4216 32.9897 69.1725 32.9944 70.8655 32.6122C72.535 32.252 74.1668 31.5003 75.3461 30.238C75.6343 29.9498 75.8081 29.5489 75.8034 29.1401C75.8332 26.52 75.6045 23.8748 74.8638 21.3534C74.4863 19.9501 73.8662 18.5876 72.8952 17.4945C72.2374 16.8195 71.3165 16.2228 70.3314 16.4232C69.2414 16.7208 68.402 17.5649 67.8303 18.5078ZM74.4863 32.0422C71.9978 33.7163 68.8812 33.8338 65.9854 33.7289C66.2689 35.4046 66.673 37.0772 67.4028 38.6199C67.9791 39.7929 68.8185 40.9894 70.1153 41.417C71.0503 41.7662 72.0401 41.2431 72.7025 40.5947C73.8709 39.4421 74.513 37.8697 74.9342 36.3098C75.2866 35.0006 75.5576 33.66 75.6468 32.3053C75.5936 31.7117 74.8387 31.7227 74.4863 32.0422Z"></path><path fill="#224340" d="M78.5966 16.5313C81.0554 16.4906 83.5158 16.5313 85.9761 16.5094C85.381 17.2126 85.6347 18.157 86.0372 18.8868C87.3763 21.3205 88.7028 23.7621 90.0418 26.1974C91.7363 23.6415 93.4591 21.1075 95.1458 18.5469C95.553 17.9549 95.8803 17.1233 95.3227 16.511C96.3767 16.5298 97.4323 16.4859 98.4863 16.5392C97.8599 16.8994 97.2005 17.2329 96.6947 17.7592C95.9038 18.5579 95.3494 19.5445 94.712 20.4592C93.2727 22.6079 91.8131 24.7409 90.3895 26.8975C92.604 30.9569 94.795 35.0288 97.0079 39.0882C97.5764 40.1014 98.5067 40.8328 99.473 41.4452C97.0016 41.4593 94.5319 41.4452 92.0605 41.453C92.6525 40.8156 92.4583 39.8947 92.0762 39.204C90.5038 36.2676 88.9251 33.3342 87.3277 30.4118C85.4781 33.0774 83.7068 35.7977 81.8776 38.4774C81.4516 39.1414 80.9035 39.7835 80.7938 40.5916C80.7516 40.9236 80.9896 41.1883 81.1447 41.4561C80.0844 41.4389 79.0241 41.4671 77.9639 41.4373C79.021 40.8876 79.9857 40.1484 80.6404 39.1383C82.7437 36.017 84.825 32.8816 86.9221 29.7572C85.3027 26.7409 83.6755 23.7292 82.0452 20.7191C81.6223 19.947 81.248 19.1452 80.7437 18.4216C80.194 17.626 79.3969 17.0513 78.5966 16.5313Z"></path><path fill="#224340" d="M235.376 53.8699C235.576 53.8777 235.782 53.8876 235.99 53.8974C235.996 54.8819 235.984 55.8684 236 56.8549C235.749 56.8961 235.5 56.9373 235.254 56.9746C235.237 56.3568 235.245 55.739 235.239 55.1232C234.947 55.4703 234.648 55.8116 234.342 56.143C234.042 55.8272 233.752 55.5056 233.464 55.1859C233.444 55.7704 233.446 56.3529 233.446 56.9373C233.252 56.9393 232.866 56.9412 232.671 56.9412C232.669 55.9077 232.648 54.876 232.689 53.8424C233.53 53.7307 233.831 54.6387 234.34 55.129C234.674 54.6995 235.013 54.2759 235.376 53.8699Z"></path><path fill="#224340" d="M229.353 53.8797C230.206 53.8836 231.059 53.8836 231.914 53.8797C231.918 54.0425 231.93 54.3661 231.936 54.5289C231.618 54.5308 231.306 54.5308 230.996 54.5348C230.994 55.3369 231 56.1391 230.992 56.9432C230.751 56.9412 230.514 56.9412 230.278 56.9432C230.269 56.141 230.272 55.3369 230.274 54.5348C229.957 54.5308 229.643 54.5289 229.333 54.5289C229.339 54.3661 229.349 54.0425 229.353 53.8797Z"></path><path fill="#224340" d="M53.999 56.4411C55.2738 56.1822 56.6839 56.394 57.7156 57.2276C59.4866 58.5946 59.567 61.558 57.9333 63.0643C56.2152 64.6117 53.1655 64.4901 51.7494 62.5955C50.9747 61.6326 50.8786 60.3166 51.114 59.1477C51.4709 57.7944 52.6438 56.7412 53.999 56.4411ZM54.758 58.0239C53.9323 58.1553 53.1321 58.7672 53.0027 59.6262C52.9517 60.3381 52.8771 61.1599 53.4165 61.7189C53.9794 62.4877 55.0384 62.419 55.8759 62.2857C57.0272 61.8601 57.4802 60.3832 57.0056 59.3104C56.6506 58.4455 55.6818 57.8964 54.758 58.0239Z"></path><path fill="#224340" d="M99.7704 56.851C100.708 56.2626 101.916 56.2214 102.965 56.4999C103.95 56.7608 104.599 57.6924 104.687 58.6828C104.054 58.6887 103.422 58.6887 102.793 58.6887C102.538 57.8277 101.561 57.7845 100.871 58.1277C100.863 58.3925 100.863 58.6592 100.871 58.926C101.902 59.5202 103.201 59.4634 104.17 60.189C105.342 61.1285 104.944 63.2192 103.573 63.7664C102.173 64.3822 100.204 64.2939 99.2272 62.976C98.8839 62.5916 98.8761 62.066 98.8467 61.5835C99.4488 61.5776 100.053 61.5815 100.657 61.5776C100.879 61.9659 101.11 62.5072 101.638 62.5053C102.138 62.6073 102.938 62.4523 102.897 61.8032C102.969 61.4678 102.665 61.252 102.402 61.1304C101.52 60.7382 100.48 60.7539 99.6783 60.1753C98.5505 59.4379 98.6623 57.557 99.7704 56.851Z"></path><path fill="#224340" d="M147.186 56.4293C148.32 56.4274 149.453 56.4195 150.587 56.4274C151.299 56.4391 152.05 56.5823 152.607 57.0569C153.903 58.0729 153.807 60.3695 152.405 61.2521C151.422 61.9169 150.195 61.6208 149.088 61.6875C149.083 62.3778 149.11 63.0682 149.081 63.7586C148.616 64.2469 147.8 63.9017 147.188 63.9919C147.18 61.4698 147.182 58.9495 147.186 56.4293ZM149.108 58.0258C149.083 58.7279 149.09 59.4301 149.09 60.1341C149.642 60.1283 150.195 60.1557 150.748 60.1145C151.432 60.0479 151.966 59.13 151.507 58.5553C150.991 57.7434 149.904 58.1003 149.108 58.0258Z"></path><path fill="#224340" d="M219.592 57.4277C220.102 56.6354 221.102 56.3608 221.994 56.3431C222.875 56.3019 223.849 56.4961 224.459 57.1865C224.863 57.5768 224.958 58.1553 225.073 58.681C224.426 58.6888 223.783 58.6868 223.14 58.6888C222.992 58.4456 222.847 58.2024 222.694 57.9671C222.229 57.9788 221.655 57.8062 221.29 58.1789C221.178 58.4966 221.18 58.9595 221.569 59.083C222.537 59.538 223.716 59.5145 224.573 60.2127C225.342 60.8266 225.389 61.9837 224.983 62.8172C224.614 63.5723 223.769 63.9489 222.979 64.0705C221.874 64.2254 220.588 64.0862 219.813 63.1997C219.368 62.78 219.242 62.1641 219.168 61.5856C219.801 61.5777 220.435 61.5817 221.072 61.5777C221.249 61.9994 221.516 62.5289 222.053 62.5093C222.398 62.5054 222.839 62.5956 223.089 62.2857C223.428 62.021 223.347 61.4169 222.965 61.2286C222.063 60.7246 220.935 60.7972 220.078 60.1892C219.178 59.6145 219.099 58.2965 219.592 57.4277Z"></path><path fill="#224340" d="M33.0048 56.4274C34.2247 56.4333 35.4466 56.4059 36.6685 56.4392C37.5353 56.4588 38.4571 56.7962 38.9416 57.5571C39.4338 58.1749 39.3946 59.0124 39.2985 59.7537C39.1181 60.4833 38.5218 61.0129 37.8903 61.3679C38.4238 62.2308 38.9592 63.0938 39.4299 63.994C38.769 63.992 38.11 64.0214 37.451 63.9861C36.8214 63.3095 36.5429 62.372 35.982 61.6366C35.6055 61.5326 35.2112 61.5914 34.8268 61.5836C34.8268 62.3877 34.8347 63.1938 34.817 63.9999C34.2149 63.9979 33.6109 63.9979 33.0088 63.9979C32.9931 61.4738 33.0029 58.9516 33.0048 56.4274ZM34.8327 58.0102C34.8268 58.6594 34.8308 59.3085 34.821 59.9577C35.5564 60.1323 36.3547 60.1715 37.0646 59.8675C37.5903 59.4635 37.6354 58.6299 37.0999 58.2142C36.4096 57.8297 35.5839 58.0573 34.8327 58.0102Z"></path><path fill="#224340" d="M43.6146 56.6216C45.1032 56.0646 46.9272 56.3097 48.1098 57.4119C49.5945 58.7946 49.6612 61.3658 48.3177 62.8662C46.684 64.5843 43.5381 64.5705 42.0221 62.7054C41.3729 61.9817 41.1493 60.9834 41.2179 60.0322C41.1532 58.5279 42.2241 57.1236 43.6146 56.6216ZM44.9463 58.018C42.9027 58.2063 42.4594 61.3953 44.2657 62.2229C45.5621 62.9309 47.3547 61.9268 47.3645 60.4303C47.5607 59.0771 46.2858 57.8317 44.9463 58.018Z"></path><path fill="#224340" d="M60.2783 57.9983C60.2803 57.4747 60.2803 56.9491 60.2881 56.4254C62.3965 56.4274 64.5029 56.4274 66.6112 56.4254C66.6191 56.9491 66.6191 57.4747 66.6191 58.0003C65.8738 58.0023 65.1305 58.0042 64.3891 57.9983C64.3636 59.9969 64.3911 61.9954 64.3734 63.9939C63.7537 63.9998 63.1339 63.9998 62.5161 63.9939C62.5024 61.9954 62.5259 59.9988 62.5024 58.0003C61.761 58.0023 61.0197 58.0023 60.2783 57.9983Z"></path><path fill="#224340" d="M72.1762 57.6983C73.657 55.9645 76.6381 55.8645 78.2326 57.4943C78.7131 58.0141 78.9857 58.6828 79.1818 59.3536C78.5405 59.3791 77.8972 59.3693 77.2578 59.3752C76.9558 58.8182 76.5204 58.2573 75.8673 58.1219C74.8906 57.7787 73.7629 58.4102 73.4 59.3458C72.9058 60.4813 73.5001 61.9993 74.7317 62.3406C75.7849 62.7466 76.9558 61.964 77.2755 60.9383C77.9188 60.9344 78.5621 60.9324 79.2054 60.9481C79.0171 61.8601 78.5856 62.774 77.8129 63.331C76.336 64.4372 74.1237 64.3803 72.6822 63.2447C71.0269 61.9503 70.8131 59.2751 72.1762 57.6983Z"></path><path fill="#224340" d="M81.3683 61.4109C82.0527 59.7635 82.6647 58.0866 83.3315 56.4313C84.0356 56.4235 84.7377 56.4215 85.4418 56.4333C86.4518 58.9476 87.4501 61.4678 88.4268 63.9978C87.7757 63.9978 87.1285 63.9978 86.4793 63.9978C86.2361 63.5232 86.1851 62.9191 85.7831 62.5465C84.824 62.5132 83.863 62.5504 82.902 62.5347C82.6901 62.9878 82.5764 63.4958 82.294 63.9115C81.6958 64.1096 81.027 63.9508 80.4033 63.99C80.6387 63.0996 81.0466 62.27 81.3683 61.4109ZM84.3886 58.3906C84.0218 59.3104 83.6845 60.242 83.3119 61.1599C84.0277 61.1736 84.7475 61.1756 85.4653 61.1579C85.0947 60.2401 84.8005 59.2928 84.3886 58.3906Z"></path><path fill="#224340" d="M90.0618 56.4254C90.658 56.4254 91.2562 56.4254 91.8544 56.4254C91.8721 58.0141 91.8387 59.6027 91.8681 61.1913C91.9191 62.1915 93.1449 62.7485 94.0059 62.3543C94.5002 62.1935 94.8591 61.7051 94.8591 61.1854C94.8885 59.6007 94.8571 58.016 94.8728 56.4313C95.4867 56.4235 96.1025 56.4215 96.7183 56.4352C96.7144 58.0984 96.7379 59.7635 96.7105 61.4266C96.6693 62.6152 95.7769 63.6409 94.6492 63.9527C93.4313 64.2842 92.0074 64.1685 90.9973 63.3604C90.3697 62.8329 90.0324 62.0131 90.0579 61.1991C90.054 59.6086 90.052 58.016 90.0618 56.4254Z"></path><path fill="#224340" d="M107.006 56.4254C108.761 56.4235 110.517 56.4293 112.272 56.4235C112.28 56.9491 112.28 57.4747 112.282 58.0023C111.119 58.0023 109.958 58.0003 108.797 58.0042C108.793 58.471 108.793 58.9378 108.791 59.4046C109.834 59.4163 110.88 59.4065 111.925 59.4124C111.923 59.9067 111.923 60.4029 111.925 60.8991C110.882 60.8971 109.836 60.8932 108.795 60.901C108.791 61.4208 108.793 61.9405 108.797 62.4602C110.003 62.472 111.209 62.4426 112.415 62.4798C112.413 62.9054 112.429 63.331 112.405 63.7566C112.256 64.0822 111.868 63.9802 111.59 64.0018C110.062 63.9939 108.536 63.9998 107.008 63.9979C106.998 61.4737 107.002 58.9496 107.006 56.4254Z"></path><path fill="#224340" d="M115.306 56.7158C116.467 56.1882 117.96 56.1549 119.04 56.8923C119.636 57.2943 119.862 58.0063 119.962 58.6829C119.327 58.6888 118.693 58.6888 118.06 58.6888C117.909 58.4456 117.758 58.2044 117.597 57.971C117.134 57.9847 116.532 57.7905 116.2 58.2083C116.03 58.5025 116.11 58.9634 116.467 59.0712C117.467 59.5498 118.707 59.5204 119.568 60.2911C120.613 61.2796 120.172 63.2487 118.852 63.7783C117.563 64.3313 115.857 64.296 114.792 63.2938C114.321 62.8447 114.169 62.1955 114.039 61.5856C114.69 61.5777 115.343 61.5797 115.998 61.5797C116.145 61.9072 116.277 62.2838 116.622 62.4603C117.108 62.5309 117.746 62.6505 118.087 62.1955C118.362 61.8896 118.201 61.3816 117.85 61.2129C116.985 60.7481 115.932 60.7873 115.094 60.2519C113.788 59.5282 113.963 57.3061 115.306 56.7158Z"></path><path fill="#224340" d="M129.492 56.4254C130.716 56.4352 131.94 56.4077 133.164 56.4372C134.027 56.4568 134.943 56.798 135.441 57.5394C135.91 58.2023 135.941 59.0711 135.77 59.8419C135.578 60.5382 134.988 61.0108 134.403 61.3776C134.921 62.2425 135.47 63.0917 135.921 63.9939C135.264 63.99 134.607 64.0233 133.952 63.9841C133.317 63.3133 133.048 62.3661 132.483 61.6345C132.103 61.5364 131.707 61.5894 131.322 61.5835C131.322 62.3876 131.33 63.1937 131.312 63.9978C130.706 63.9978 130.1 63.9978 129.496 63.9978C129.479 61.4737 129.486 58.9495 129.492 56.4254ZM131.318 59.9714C132.054 60.1243 132.854 60.1792 133.558 59.8654C134.091 59.4712 134.154 58.6142 133.589 58.2219C132.907 57.8179 132.075 58.067 131.328 58.0062C131.322 58.6612 131.324 59.3163 131.318 59.9714Z"></path><path fill="#224340" d="M140.343 56.4235C141.031 56.4274 141.721 56.4254 142.414 56.4235C143.426 58.9417 144.44 61.46 145.412 63.9959C144.757 63.9998 144.106 63.9998 143.455 63.9959C143.259 63.5036 143.069 63.0113 142.841 62.5347C141.87 62.5367 140.9 62.5406 139.931 62.5328C139.689 63.0074 139.495 63.5056 139.293 63.9998C138.642 63.9978 137.989 63.9979 137.34 63.9979C138.32 61.4659 139.323 58.9398 140.343 56.4235ZM140.288 61.1579C141.009 61.1736 141.731 61.1736 142.453 61.1599C142.09 60.2303 141.768 59.2849 141.392 58.3612C141.002 59.2849 140.668 60.2303 140.288 61.1579Z"></path><path fill="#224340" d="M155.576 57.2825C155.59 56.9961 155.535 56.6921 155.656 56.4235C156.221 56.4136 156.79 56.4274 157.361 56.4274C157.367 58.9515 157.371 61.4757 157.359 63.9978C156.767 63.9978 156.176 63.9978 155.588 63.9978C155.568 61.76 155.59 59.5222 155.576 57.2825Z"></path><path fill="#224340" d="M160.065 56.4255C161.728 56.5235 163.475 56.1666 165.072 56.7648C167.388 57.7317 167.868 61.1188 166.207 62.8859C165.546 63.6213 164.546 64.0136 163.565 64.0018C162.398 63.9979 161.233 63.9979 160.067 63.9999C160.047 61.4738 160.053 58.9496 160.065 56.4255ZM161.887 58.0004C161.873 59.2046 161.887 60.4088 161.877 61.613C161.9 61.8915 161.812 62.2073 161.971 62.4583C162.724 62.4583 163.514 62.5583 164.226 62.2465C164.709 61.9798 165.081 61.5032 165.211 60.9678C165.332 60.0911 165.325 59.032 164.564 58.4338C163.822 57.7846 162.779 58.0553 161.887 58.0004Z"></path><path fill="#224340" d="M172.706 63.9802C172.706 61.4619 172.7 58.9457 172.708 56.4294C174.04 56.4431 175.374 56.3803 176.703 56.4647C177.756 56.5235 178.751 57.2492 179.035 58.2847C179.437 59.4987 178.751 60.8206 177.641 61.3776C178.166 62.2406 178.688 63.1094 179.184 63.992C178.476 63.9214 177.682 64.1763 177.035 63.8449C176.564 63.1075 176.16 62.3288 175.711 61.5796C175.338 61.5796 174.969 61.5796 174.603 61.5816C174.601 62.3857 174.605 63.1898 174.597 63.9959C173.965 63.9998 173.334 64.0057 172.706 63.9802ZM174.611 58.0003C174.599 58.6946 174.595 59.3889 174.618 60.0851C175.281 60.0675 175.968 60.1636 176.611 59.94C177.317 59.6988 177.445 58.5652 176.78 58.1925C176.113 57.8434 175.328 58.0572 174.611 58.0003Z"></path><path fill="#224340" d="M181.349 56.4471C183.116 56.398 184.885 56.4392 186.654 56.4255C186.658 56.9511 186.66 57.4767 186.662 58.0023C185.518 58.0023 184.377 58.0004 183.235 58.0043C183.228 58.4711 183.226 58.9398 183.226 59.4086C184.242 59.4125 185.255 59.4086 186.273 59.4105C186.273 59.9067 186.273 60.401 186.273 60.8972C185.257 60.8972 184.243 60.8972 183.229 60.8972C183.226 61.4169 183.226 61.9386 183.237 62.4622C184.412 62.4642 185.587 62.4622 186.764 62.4622C186.764 62.9722 186.762 63.4841 186.76 63.9979C184.955 63.945 183.139 64.1136 181.347 63.9018C181.358 61.4169 181.353 58.932 181.349 56.4471Z"></path><path fill="#224340" d="M188.864 57.4786C189.227 56.855 189.937 56.5372 190.624 56.4078C191.602 56.2587 192.705 56.3137 193.518 56.9432C194.05 57.361 194.283 58.0298 194.35 58.6829C193.738 58.6887 193.126 58.6848 192.518 58.6946C192.263 58.3789 192.051 57.8944 191.571 57.9376C191.055 57.8376 190.32 58.1259 190.526 58.7613C190.9 59.3026 191.63 59.3144 192.204 59.5046C193.105 59.7106 194.174 60.0852 194.462 61.0717C194.552 61.762 194.581 62.5603 194.093 63.1192C193.228 64.1665 191.683 64.2705 190.443 63.994C189.337 63.7429 188.46 62.7427 188.486 61.5855C189.102 61.6091 189.739 61.5032 190.347 61.6404C190.557 61.9032 190.73 62.2014 190.987 62.4308C191.526 62.5956 192.285 62.6211 192.581 62.0327C192.824 61.7032 192.457 61.3639 192.201 61.1933C191.257 60.6932 190.053 60.7873 189.219 60.0597C188.464 59.4478 188.417 58.2867 188.864 57.4786Z"></path><path fill="#224340" d="M196.619 61.2129C196.627 59.6164 196.615 58.0199 196.627 56.4254C197.207 56.4254 197.788 56.4254 198.372 56.4235C198.413 58.0199 198.321 59.6203 198.419 61.2148C198.482 62.2092 199.714 62.7505 200.559 62.3445C201.038 62.166 201.369 61.711 201.438 61.2089C201.581 59.6223 201.332 57.9905 201.555 56.4235C202.122 56.4136 202.689 56.4274 203.26 56.4274C203.262 58.0258 203.271 59.6223 203.258 61.2207C203.258 62.2366 202.712 63.2761 201.767 63.7076C200.398 64.3783 198.578 64.2803 197.407 63.2506C196.876 62.7211 196.585 61.9601 196.619 61.2129Z"></path><path fill="#224340" d="M205.843 63.9978C205.839 61.4737 205.835 58.9496 205.845 56.4254C206.439 56.4254 207.036 56.4254 207.634 56.4254C207.649 58.4377 207.632 60.4499 207.644 62.4622C208.871 62.4641 210.099 62.4602 211.329 62.4641C211.325 62.9741 211.325 63.486 211.319 63.9978C209.493 63.9998 207.669 63.9998 205.843 63.9978Z"></path><path fill="#224340" d="M211.472 56.4235C213.58 56.4254 215.688 56.4274 217.799 56.4235C217.805 56.9491 217.808 57.4747 217.808 58.0023C217.046 58.0082 216.285 57.9807 215.528 58.014C215.388 60.0008 215.524 62.0052 215.461 63.9998C214.867 63.9978 214.274 63.9978 213.684 63.9959C213.668 61.9974 213.69 59.9969 213.672 57.9984C212.935 58.0023 212.197 58.0023 211.464 58.0003C211.46 57.4747 211.462 56.9491 211.472 56.4235Z"></path><path fill="#224340" d="M227.583 62.2837C228.2 62.066 228.936 62.4896 228.946 63.1702C228.973 63.9566 227.92 64.4293 227.341 63.9115C226.779 63.5212 226.935 62.4759 227.583 62.2837Z"></path><path fill="#224340" d="M122.291 62.5111C122.836 62.5111 123.383 62.5092 123.933 62.517C123.713 63.5192 123.268 64.4508 122.934 65.4177C122.483 65.4177 122.034 65.4158 121.585 65.4118C121.716 64.4214 122.011 63.4643 122.291 62.5111Z"></path></svg>