<?xml version="1.0" encoding="UTF-8"?>
<svg id="Layer_1" data-name="Layer 1" xmlns="http://www.w3.org/2000/svg" version="1.1" viewBox="0 0 70 100">
  <defs>
    <style>
      .cls-1 {
        fill: #fff;
        stroke-width: 0px;
      }
    </style>
  </defs>
  <path class="cls-1" d="M65.5,0H4.5C2,0,0,2,0,4.5v91c0,2.5,2,4.5,4.5,4.5h7.6c1.9,0,3.6-1.2,4.2-3l1.4-3.8c.5-1.3,1.7-2.2,3.2-2.2h28.3c1.4,0,2.7.9,3.2,2.2l1.4,3.8c.6,1.8,2.3,3,4.2,3h7.6c2.5,0,4.5-2,4.5-4.5V4.5c0-2.5-2-4.5-4.5-4.5Z"/>
</svg>